<svg width="32" height="32" viewBox="0 0 32 32" fill="none" xmlns="http://www.w3.org/2000/svg">
<path d="M16 2.66667C8.65195 2.66667 2.66663 8.652 2.66663 16C2.66663 23.348 8.65195 29.3333 16 29.3333C23.348 29.3333 29.3333 23.348 29.3333 16C29.3333 8.652 23.348 2.66667 16 2.66667ZM16 5.33334C21.9068 5.33334 26.6666 10.0932 26.6666 16C26.6666 21.9068 21.9068 26.6667 16 26.6667C10.0931 26.6667 5.33329 21.9068 5.33329 16C5.33329 10.0932 10.0931 5.33334 16 5.33334ZM14.6666 9.33334V14.6667H9.33329V17.3333H14.6666V22.6667H17.3333V17.3333H22.6666V14.6667H17.3333V9.33334H14.6666Z" fill="black"/>
</svg>
